<?xml version="1.0" encoding="UTF-8" standalone="no"?><svg xmlns:dc="http://purl.org/dc/elements/1.1/" xmlns:cc="http://creativecommons.org/ns#" xmlns:rdf="http://www.w3.org/1999/02/22-rdf-syntax-ns#" xmlns:svg="http://www.w3.org/2000/svg" xmlns="http://www.w3.org/2000/svg" width="40mm" height="40mm" viewBox="0 0 40 40" version="1.1" id="svg1069"> <defs id="defs1063" /> <metadata id="metadata1066"> <rdf:RDF> <cc:Work rdf:about=""> <dc:format>image/svg+xml</dc:format> <dc:type rdf:resource="http://purl.org/dc/dcmitype/StillImage" /> <dc:title></dc:title> </cc:Work> </rdf:RDF> </metadata> <g id="layer1"> <g id="g1664" clip-path="none" transform="translate(-0.77657223,-0.54684981)"> <g id="g1662"> <path d="m 20.775137,0.54684981 c -11.0429113,0 -19.99856477,9.18083919 -19.99856477,20.50677119 0,9.058732 5.73018157,16.745308 13.67779277,19.458141 1.000663,0.187697 1.365328,-0.445639 1.365328,-0.989461 0,-0.487164 -0.0164,-1.776244 -0.02788,-3.487021 C 10.2286,37.273985 9.0548192,33.285936 9.0548192,33.285936 8.1450118,30.916765 6.8337006,30.286079 6.8337006,30.286079 5.0177531,29.01463 6.971252,29.039817 6.971252,29.039817 c 2.0074743,0.144772 3.063382,2.11362 3.063382,2.11362 1.78403,3.133285 4.681674,2.228167 5.821056,1.703223 0.181626,-1.32432 0.698623,-2.228167 1.269595,-2.740518 -4.441009,-0.518658 -9.1104035,-2.277293 -9.1104035,-10.135063 0,-2.239507 0.7796983,-4.068626 2.0590505,-5.502463 -0.2063884,-0.518652 -0.8926088,-2.603318 0.196386,-5.4269306 0,0 1.678395,-0.5513801 5.499357,2.1010306 1.594922,-0.454447 3.306486,-0.681042 5.007021,-0.689853 1.699264,0.009 3.409619,0.235408 5.00698,0.689853 3.818502,-2.6524107 5.494455,-2.1010306 5.494455,-2.1010306 1.091519,2.8236126 0.405195,4.9082786 0.200076,5.4269306 1.281835,1.433837 2.055361,3.262956 2.055361,5.502463 0,7.87792 -4.676731,9.611367 -9.13123,10.11868 0.717031,0.633206 1.356718,1.884504 1.356718,3.797984 0,2.740516 -0.0244,4.952324 -0.0244,5.624558 0,0.548863 0.360996,1.187125 1.375147,0.986944 7.941481,-2.717873 13.666764,-10.398141 13.666764,-19.455624 0,-11.325932 -8.955654,-20.50677119 -20.002256,-20.50677119" style="fill:#4682b4;fill-opacity:1;fill-rule:evenodd;stroke:none;stroke-width:0.124324" id="path16" /> </g> </g> </g></svg>